<?xml version="1.0" encoding="UTF-8" standalone="no"?>
<!-- Created with Inkscape (http://www.inkscape.org/) -->

<svg
   version="1.1"
   id="svg1"
   width="771.40955"
   height="129.13829"
   viewBox="0 0 771.40951 129.13829"
   sodipodi:docname="20260624_104857.svg"
   inkscape:version="1.4.4 (dcaf3e7, 2026-05-05)"
   xmlns:inkscape="http://www.inkscape.org/namespaces/inkscape"
   xmlns:sodipodi="http://sodipodi.sourceforge.net/DTD/sodipodi-0.dtd"
   xmlns="http://www.w3.org/2000/svg"
   xmlns:svg="http://www.w3.org/2000/svg">
  <defs
     id="defs1" />
  <sodipodi:namedview
     id="namedview1"
     pagecolor="#ffffff"
     bordercolor="#000000"
     borderopacity="0.25"
     inkscape:showpageshadow="2"
     inkscape:pageopacity="0.0"
     inkscape:pagecheckerboard="0"
     inkscape:deskcolor="#d1d1d1"
     inkscape:zoom="0.504375"
     inkscape:cx="428.25279"
     inkscape:cy="149.69021"
     inkscape:window-width="1920"
     inkscape:window-height="1046"
     inkscape:window-x="-11"
     inkscape:window-y="-11"
     inkscape:window-maximized="1"
     inkscape:current-layer="g1" />
  <g
     inkscape:groupmode="layer"
     inkscape:label="Image"
     id="g1">
    <path
       style="fill:#0000ff"
       d="m 691.72895,128.00966 c -16.34403,-3.2227 -22.60658,-15.76338 -13.11719,-26.26701 4.52769,-5.011613 4.53115,-5.025713 2,-8.151556 -3.5695,-4.40814 -3.25243,-11.82847 0.7576,-17.72975 2.92138,-4.29921 3.06197,-5.03813 1.24542,-6.54574 -10.65558,-8.84334 -7.12335,-30.05765 6.12811,-36.80507 6.76237,-3.44329 10.91924,-3.72695 34.39881,-2.34737 l 16.3988,0.96354 -0.3988,6.14761 c -0.38753,5.97382 -0.53074,6.15875 -5.06547,6.54142 l -4.66667,0.39381 v 9.60619 c 0,7.80181 -0.55858,10.38928 -2.97374,13.77515 -4.57354,6.41173 -11.40717,9.16438 -22.75119,9.16438 -8.98965,0 -9.78218,0.22813 -10.48222,3.01731 -1.38048,5.50027 1.51488,6.98269 13.63811,6.98269 20.37432,0 29.93294,3.73572 32.39751,12.661663 5.23358,18.954483 -19.84476,34.047563 -47.50908,28.592733 z m 26.06924,-14.1672 c 1.98625,-1.47634 3.80119,-4.27462 4.0332,-6.21841 0.56949,-4.77121 -3.50921,-6.20211 -17.6787,-6.20211 -12.30604,0 -14.5672,1.23944 -13.83948,7.58603 0.92507,8.06767 18.8849,11.22672 27.48498,4.83449 z m -6.4854,-51.933676 c 8.70514,-11.06679 -4.12181,-27.00936 -14.15063,-17.58777 -4.14109,3.89036 -4.38176,14.47176 -0.41927,18.43425 3.97021,3.97021 11.10725,3.55557 14.5699,-0.84648 z M 22.076178,99.606907 c -8.46824,-1.92785 -16.9210605,-6.041503 -20.4638105,-9.958923 -2.4135501,-2.6688 -2.3750001,-2.83488 1.88982,-8.14188 2.39449,-2.97963 4.86513,-5.41751 5.4903,-5.41751 0.62517,0 3.5000305,1.49192 6.3885705,3.31537 13.44788,8.48928 30.69511,5.8917 30.69511,-4.62293 0,-5.03145 -4.09119,-8.19461 -18.93956,-14.64336 C 6.7630775,51.289314 -0.4775526,41.190714 3.3527475,26.966054 6.3860475,15.701234 16.700768,8.2077535 30.703628,7.0960835 c 9.76729,-0.77541 16.70079,0.96256 25.10647,6.2932905 6.92686,4.39288 6.95049,4.83264 0.66533,12.38164 l -3.06592,3.68242 -6.55931,-3.34908 c -11.43047,-5.83624 -23.01868,-3.95819 -25.34818,4.10807 -1.3875,4.80443 3.72163,9.28809 16.72592,14.67828 20.79958,8.6213 26.5149,14.75428 26.5149,28.45252 0,19.25503 -19.83131,31.462306 -42.66666,26.263683 z m 80.000002,0.594953 C 81.971118,96.023467 70.347818,73.349344 77.410548,52.085464 c 8.32813,-25.07364 40.683492,-31.32124 56.283702,-10.868 10.48775,13.75037 9.84317,35.75514 -1.4383,49.10059 -6.45321,7.633843 -19.86746,12.026986 -30.17977,9.883806 z m 15.11913,-18.262696 c 4.19304,-4.19304 5.37397,-9.65199 4.62672,-21.38735 -0.50328,-7.90377 -1.00367,-9.21016 -4.84127,-12.63905 -4.54494,-4.06091 -10.28013,-4.96576 -15.10559,-2.38326 -6.280399,3.36117 -9.525439,18.28933 -6.412299,29.49845 2.81631,10.1403 14.718339,13.92531 21.732439,6.91121 z m 52.21421,17.476243 c -6.47737,-2.29478 -10.65355,-7.217693 -12.56606,-14.812953 -0.78867,-3.13209 -1.43394,-16.52902 -1.43394,-29.77095 v -24.07624 h 9.33333 9.33333 v 24.06061 c 0,23.76805 0.0398,24.1004 3.27273,27.33333 1.8,1.8 4.16094,3.27273 5.24654,3.27273 3.32968,0 8.56758,-2.42018 11.42749,-5.28009 2.53043,-2.53043 2.71991,-4.34543 2.71991,-26.05325 v -23.33333 h 9.33334 9.33333 v 34.06654 34.066543 l -7.66667,-0.39987 c -7.25774,-0.37855 -7.68917,-0.59545 -8.08856,-4.066543 -0.23204,-2.01667 -0.71723,-3.66667 -1.07818,-3.66667 -0.36096,0 -2.87111,1.74995 -5.57811,3.88878 -4.31958,3.412953 -13.01429,6.861656 -16.92182,6.711936 -0.73333,-0.0281 -3.73333,-0.90136 -6.66666,-1.940573 z m 83.70007,0.752603 C 240.40217,97.028707 237.59204,90.933114 236.9724,65.164064 l -0.47109,-19.59119 -4.21256,-0.40881 c -4.11168,-0.39901 -4.21256,-0.56846 -4.21256,-7.07547 v -6.66666 l 4.79845,-0.40181 4.79845,-0.4018 1.20155,-8.93153 1.20155,-8.93153 7.66667,-0.39987 7.66666,-0.39987 v 8.7078 c 0,9.67209 -0.0283,9.64613 11.33334,10.40322 5.14539,0.34286 5.34811,0.53486 5.7527,5.44844 0.58749,7.13487 -1.38533,8.90695 -9.91596,8.90695 h -7.17008 v 17.39394 c 0,16.87638 0.10139,17.49532 3.40725,20.80118 2.79894,2.79894 4.20884,3.25687 7.8971,2.56495 4.82089,-0.9044 4.87819,-0.83472 6.67498,8.11666 0.76694,3.820833 0.49878,4.278893 -2.90046,4.954413 -8.37715,1.664743 -13.29553,1.923683 -17.3788,0.914933 z m 43.6545,-0.11479 c -5.92337,-1.388343 -12.702,-8.734796 -13.88674,-15.049986 -1.35124,-7.20273 1.18013,-14.70329 6.55488,-19.42238 4.45773,-3.91393 16.31829,-8.26835 27.50992,-10.09983 4.20813,-0.68865 4.76852,-1.19709 4.14529,-3.76103 -1.9655,-8.08593 -10.44021,-9.91977 -22.98724,-4.97419 l -6.74138,2.6572 -2.65533,-4.32387 c -1.46043,-2.37813 -2.49706,-5.19138 -2.30362,-6.25168 1.0126,-5.55036 22.12161,-11.4704 33.32434,-9.34585 8.65155,1.64074 13.44313,5.24182 17.2307,12.94963 2.91374,5.92954 3.10801,7.86271 3.11444,30.9907 l 0.007,24.666663 -7.66667,0.39988 c -6.08391,0.31731 -7.66667,-0.0105 -7.66667,-1.58798 0,-3.468683 -2.20792,-3.545033 -8.18672,-0.28311 -6.93745,3.784943 -13.46667,4.918393 -19.79205,3.435833 z m 20.11493,-16.342916 c 4.05476,-2.72521 4.57283,-3.77531 4.93352,-10 0.46387,-8.00524 -0.49057,-8.45235 -10.50251,-4.91993 -7.45588,2.63058 -10.57213,5.53748 -10.54675,9.83821 0.0482,8.17051 7.85658,10.6327 16.11574,5.08172 z m 167.35626,16.380826 c -5.15313,-1.607883 -10.06727,-6.322996 -12.50917,-12.002536 -2.23066,-5.18822 -4.0325,-43.9889 -2.43758,-52.49057 l 0.90851,-4.84276 h 8.60625 8.60625 l 0.007,21 c 0.009,24.3132 1.22319,30.52002 6.35406,32.47077 4.77093,1.81391 9.21179,0.4944 13.80935,-4.10316 l 3.82915,-3.82915 v -22.76923 -22.76923 h 8.66667 8.66667 v 34 34.000003 h -7.16667 c -6.87217,0 -7.19905,-0.16192 -7.95473,-3.940303 l -0.78806,-3.9403 -6.84592,4.60697 c -3.76526,2.533833 -7.61063,4.606966 -8.54528,4.606966 -0.93464,0 -3.42434,0.27022 -5.53268,0.60049 -2.10833,0.33026 -5.56175,0.0612 -7.67426,-0.59796 z m 137.60168,-0.478493 c -16.94465,-4.700243 -26.50994,-21.844813 -23.43469,-42.003743 1.32488,-8.68487 3.6573,-13.41476 9.49272,-19.25018 6.27087,-6.27087 13.22995,-9.20735 22.01372,-9.28899 12.89695,-0.11987 23.60568,6.43388 29.95866,18.33473 4.24719,7.95615 4.11357,26.98708 -0.24705,35.18587 -7.57475,14.241953 -22.90608,21.149096 -37.78336,17.022313 z m 16.08343,-16.364963 c 6.19357,-4.33815 8.6337,-17.25081 5.4358,-28.7651 -3.60744,-12.98884 -19.56404,-14.01755 -24.75415,-1.59588 -2.23391,5.3465 -2.45008,19.56319 -0.3592,23.62289 4.51246,8.76151 12.75775,11.58491 19.67755,6.73809 z M 387.72513,53.755264 388.0762,8.7552635 h 8.66667 8.66667 l 0.37097,19.1694105 0.37098,19.1694 8.29569,-10.5759 c 4.56263,-5.81674 11.29569,-14.57803 14.96236,-19.46953 l 6.66666,-8.8936305 9.00001,-0.0332 c 5.95688,-0.022 9,0.48967 9,1.51319 0,0.8505205 -5.66937,8.9839805 -12.59859,18.0743705 l -12.59858,16.52797 6.85839,11.5923 c 3.77211,6.37576 10.92314,18.4923 15.89118,26.92563 l 9.03281,15.333333 -9.49674,0.39587 c -5.22321,0.21773 -9.95363,-0.0823 -10.51205,-0.66667 -0.55842,-0.58439 -5.6065,-9.001803 -11.21794,-18.705353 -5.61145,-9.70355 -10.73452,-17.97155 -11.38461,-18.37332 -0.65009,-0.40178 -3.61016,2.34137 -6.57793,6.09588 l -5.39595,6.82639 v 12.54692 12.546943 h -9.35107 -9.35107 z m 161.01775,11 v -34 h 7.21614 7.21613 l 0.86145,5.09888 0.86146,5.09889 4.97075,-4.97075 c 5.7023,-5.70231 14.12522,-8.61933 19.25583,-6.66868 3.12308,1.1874 3.24366,1.60388 2.15357,7.43883 -1.5627,8.3647 -1.85922,8.6695 -8.43421,8.6695 -3.80349,0 -6.93633,0.93985 -9.28128,2.78439 -6.6238,5.21028 -7.48651,8.72297 -7.48651,30.48273 v 20.066213 h -8.66666 -8.66667 z m 202.66668,0 v -34 h 9.33334 9.33333 v 34 34.000003 h -9.33333 -9.33334 z m 5.4543,-46.11897 c -6.92681,-2.77203 -8.63879,-9.1680405 -4.02419,-15.0345502 5.65396,-7.18784 18.56989,-2.84810995 18.56989,6.2394497 0,3.4452005 -4.02316,8.9140705 -6.55761,8.9140705 -0.67336,0 -2.02336,0.26248 -3,0.58329 -0.97665,0.32082 -3.22129,0.005 -4.98809,-0.70226 z"
       id="path1" />
  </g>
</svg>
